<?xml version="1.0" standalone="no"?><!DOCTYPE svg PUBLIC "-//W3C//DTD SVG 1.1//EN" "http://www.w3.org/Graphics/SVG/1.1/DTD/svg11.dtd"><svg t="1590473754689" class="icon" viewBox="0 0 1024 1024" version="1.1" xmlns="http://www.w3.org/2000/svg" p-id="4726" xmlns:xlink="http://www.w3.org/1999/xlink" width="200" height="200"><defs><style type="text/css"></style></defs><path d="M235.264 248.704c-50.784 0-94.496 16.8-131.072 50.4-38.08 35.84-57.152 80.672-57.152 134.432 0 35.84 10.368 69.472 31.296 100.832 18.688 29.12 38.176 47.808 63.776 56.032l0 2.24c-25.6 10.464-36.96 36.576-36.96 78.432 0 32.128 11.36 56.032 36.96 71.712l0 2.24c-70.656 23.136-103.008 66.08-103.008 128.832 0 54.528 23.744 94.496 70.08 119.872C145.792 1013.92 192.768 1024 249.536 1024c138.176 0 207.392-57.888 207.392-173.664 0-72.448-53.312-116.896-160.128-133.312-24.64-3.712-43.296-12.704-55.968-26.88-9.696-9.696-14.528-19.424-14.528-29.12 0-27.648 14.944-43.68 44.832-48.192 45.568-6.72 82.72-27.84 111.488-63.296 28.736-35.488 43.136-77.12 43.136-124.928 0-14.944-4.512-31.008-10.496-48.16 19.424-4.48 33.056-8.608 43.296-12.32L458.528 248.704c-45.056 17.92-86.976 26.88-122.848 26.88C304.32 257.696 271.872 248.704 235.264 248.704zM247.616 807.776c62.752 0 94.112 19.04 94.112 57.152 0 40.32-28.768 60.48-86.272 60.48-65.728 0-98.592-19.424-98.592-58.24C156.864 827.552 187.104 807.776 247.616 807.776zM239.744 512c-47.04 0-70.592-25.76-70.592-77.312 0-55.264 23.52-82.912 70.592-82.912 22.4 0 39.968 8.608 52.64 25.76 10.464 15.68 15.68 34.368 15.68 56.032C308.096 485.856 285.312 512 239.744 512zM580.384 0c-21.664 0-40.128 8.224-55.456 24.64-15.328 16.448-22.976 36.224-22.976 59.36 0 22.4 7.648 41.824 22.976 58.272 15.296 16.448 33.792 24.64 55.456 24.64 20.896 0 39.04-8.224 54.336-24.64 15.296-16.448 22.976-35.84 22.976-58.272 0-23.168-7.648-42.944-22.976-59.36C619.392 8.224 601.28 0 580.384 0zM643.136 256l-126.592 0c1.504 14.336-0.64 36.032-0.64 71.136l0 348.448c0 35.872 2.144 64.768 0.64 76.032l126.592 0c-1.504-16.384-5.408-44.672-5.408-82.752L637.728 324.896C637.728 292.032 641.632 270.336 643.136 256zM922.336 644.192c-32.864 0-49.088-25.024-49.088-75.072l0-206.624 49.856 0c8.96 0 17.024-0.48 27.104 0.256 10.08 0.736 14.144 0.256 19.264 0.256l0-106.976-96.256 0 0-47.616c0-17.92 2.816-34.304 5.056-44.544l-129.952 0c2.24 10.24 2.016 25.888 2.016 46.784L750.368 256l-56.32 0 0 106.976c15.36-2.24 29.088-3.36 38.784-3.36l17.536 1.12 0 0.576 0 0 0 202.208c0 62.752 7.968 108.672 23.648 137.792 20.928 38.848 57.632 58.272 112.128 58.272 38.848 0 73.12-7.456 98.72-22.4l0-112.032C964.384 637.856 945.472 644.192 922.336 644.192z" p-id="4727"></path></svg>