<?xml version="1.0" standalone="no"?><!DOCTYPE svg PUBLIC "-//W3C//DTD SVG 1.1//EN" "http://www.w3.org/Graphics/SVG/1.1/DTD/svg11.dtd"><svg t="1589767648035" class="icon" viewBox="0 0 1024 1024" version="1.1" xmlns="http://www.w3.org/2000/svg" p-id="14131" xmlns:xlink="http://www.w3.org/1999/xlink" width="200" height="200"><defs><style type="text/css"></style></defs><path d="M824.5 411.1c-1.4 5.8-4.8 14.4-9.6 24.7h0.1l-0.6 1c-27.9 59.8-100.7 177-100.7 177s-0.1-0.3-0.4-0.7L692 650.2h102.6L598.8 911l44.5-177.5h-80.7l28-117.4c-22.7 5.5-49.5 13-81.3 23.2 0 0-43 25.2-123.8-48.5 0 0-54.5-48.1-22.9-60.1 13.4-5.1 65.2-11.6 106-17.1 55.1-7.5 89-11.4 89-11.4s-169.8 2.5-210.1-3.8c-40.3-6.3-91.4-73.7-102.3-132.9 0 0-16.8-32.5 36.2-17.1 53 15.4 272.6 59.9 272.6 59.9s-285.6-87.7-304.6-109.1c-19-21.4-55.9-116.8-51.1-175.4 0 0 2.1-14.6 17-10.7 0 0 211.1 96.6 355.5 149.5 144.4 53.1 269.9 80 253.7 148.5z m0 0" p-id="14132" fill="#3aa2eb"></path></svg>