<?xml version="1.0" standalone="no"?><!DOCTYPE svg PUBLIC "-//W3C//DTD SVG 1.1//EN" "http://www.w3.org/Graphics/SVG/1.1/DTD/svg11.dtd"><svg t="1587895458073" class="icon" viewBox="0 0 1024 1024" version="1.1" xmlns="http://www.w3.org/2000/svg" p-id="6183" xmlns:xlink="http://www.w3.org/1999/xlink" width="200" height="200"><defs><style type="text/css"></style></defs><path d="M770.475755 650.575712s-47.237973-76.469899-131.124898-111.798039c0 0-3.835474-1.707841-10.836803-4.241957 56.556354-38.786824 93.762299-104.636985 93.762299-179.378566 0-119.299023-94.869119-215.986562-211.924808-215.986561-117.054666 0-211.924808 96.687539-211.924809 215.986561 0 74.379126 36.846561 139.949766 92.940119 178.81031-17.932328 7.106788-35.926088 16.343258-53.632137 28.172204-0.002048 0.001024-127.011951 80.381141-138.693459 232.09023 0 0-4.025917 31.857168 5.012943 47.21852 0 0 12.184235 16.751788 32.361943 13.955557 0 0 29.0036-1.807158 30.867071-37.300143 0 0-0.80375-36.332571 13.10778-75.595501 0 0 12.264098-36.591614 35.394692-66.233094 0 0 29.957861-43.319564 85.322412-70.877438 0 0 59.566577-32.574912 131.64196-24.581438 0 0 50.340346 2.312957 102.096725 33.107332 0 0 71.131361 33.027469 106.847553 133.828979 0 0 10.936119 33.163646 11.36308 64.807845 0 0-4.775401 39.949958 34.407666 43.11274 0 0 34.416881 2.568928 34.032924-43.30523 0 0 1.787704-84.03334-51.022253-161.792311zM358.929144 355.213464c0-85.212856 67.77097-154.292351 151.367111-154.292351 83.592046 0 151.366087 69.079495 151.366087 154.292351 0 85.26917-67.774041 154.349689-151.366087 154.349689-83.596141 0-151.367111-69.080519-151.367111-154.349689z" fill="#ffffff" p-id="6184"></path></svg>