<?xml version="1.0" standalone="no"?><!DOCTYPE svg PUBLIC "-//W3C//DTD SVG 1.1//EN" "http://www.w3.org/Graphics/SVG/1.1/DTD/svg11.dtd"><svg t="1589767500231" class="icon" viewBox="0 0 1024 1024" version="1.1" xmlns="http://www.w3.org/2000/svg" p-id="2150" xmlns:xlink="http://www.w3.org/1999/xlink" width="200" height="200"><defs><style type="text/css"></style></defs><path d="M652.189 114.635s-55.86-22.614-140.234-22.614c-84.37 0-140.23 25.903-140.23 25.903l280.549 285.449-0.085-288.738z" fill="#FB5453" p-id="2151"></path><path d="M811.202 217.796c-61.928-58.727-121.8-79.649-121.8-79.649l-2.06 392.072 210.411-199.332c0 0.085-24.535-54.364-86.55-113.09z" fill="#6468F1" p-id="2152"></path><path d="M906.498 368.778L617.205 645.535h292.667s22.95-55.119 22.95-138.419c-0.087-83.215-26.324-138.338-26.324-138.338z" fill="#5283F0" p-id="2153"></path><path d="M696.62 887.697s56.813-22.842 118.033-80.602c61.223-57.757 83.1-113.488 83.1-113.488l-409.132-1.946L696.62 887.697z" fill="#00B2FE" p-id="2154"></path><path d="M371.806 911.213s55.864 22.61 140.234 22.61c84.455 0 140.234-25.902 140.234-25.902l-280.548-285.45 0.08 288.742z" fill="#66D020" p-id="2155"></path><path d="M224.484 808.047c61.934 58.732 121.806 79.65 121.806 79.65l2.057-392.072-210.411 199.33c0.084-0.08 24.619 54.365 86.548 113.092z" fill="#9AD122" p-id="2156"></path><path d="M114.134 368.778s-22.956 55.107-22.956 138.378c0 83.276 26.244 138.379 26.244 138.379l289.372-276.672h-292.66v-0.085z" fill="#FFC71A" p-id="2157"></path><path d="M339.07 138.147s-56.814 22.843-118.034 80.6c-61.222 57.758-83.1 113.494-83.1 113.494l409.132 1.942L339.07 138.147z" fill="#FF7612" p-id="2158"></path></svg>