<?xml version="1.0" standalone="no"?><!DOCTYPE svg PUBLIC "-//W3C//DTD SVG 1.1//EN" "http://www.w3.org/Graphics/SVG/1.1/DTD/svg11.dtd"><svg t="1589768501714" class="icon" viewBox="0 0 1024 1024" version="1.1" xmlns="http://www.w3.org/2000/svg" p-id="20173" xmlns:xlink="http://www.w3.org/1999/xlink" width="200" height="200"><defs><style type="text/css"></style></defs><path d="M953.742866 508.583181c0-245.843174-199.295022-445.138196-445.138196-445.138196s-445.138196 199.295022-445.138196 445.138196c0 210.952526 146.742109 387.626341 343.716272 433.527764 19.433608 6.027274 40.334637 11.118222 60.912301 13.631462 171.915441 20.996197 300.073286-2.02103 377.844557-33.56649 0 0-41.244356-11.706623-93.699032-40.9916C873.586269 801.675472 953.742866 664.492066 953.742866 508.583181zM708.283432 573.997006c-8.17724 24.314779-22.525016 57.171094-46.88175 88.940658-95.537913 124.615159-254.5423 202.918549-498.924193 122.19504 0 0 119.81176 34.224476 219.189118-102.184287-64.416102-38.759769-107.399055-108.535949-107.399055-188.180893 0-121.791857 100.501972-220.522486 224.477564-220.522486s224.477564 98.731652 224.477564 220.522486C723.222679 522.69662 717.925023 549.405935 708.283432 573.997006z" p-id="20174" fill="#36dad4"></path></svg>